<svg id="Layer_1" enable-background="new 0 0 64 64" height="512" viewBox="0 0 64 64" width="512" xmlns="http://www.w3.org/2000/svg"><g fill="rgb(0,0,0)"><path d="m20.48 24.38c.02 0 .03 0 .05-.01l3.76 12.56c.13.42.51.69.93.69.07 0 .14-.01.21-.02 8.99-2.04 18.12-2.04 27.11 0 .5.11 1-.18 1.14-.67l3.76-12.56c.02 0 .03.01.05.01 1.95 0 3.53-1.58 3.53-3.53s-1.58-3.53-3.53-3.53-3.53 1.58-3.53 3.53c0 .51.11.99.31 1.43l-5.78 4.85-7.02-12.84c.65-.64 1.05-1.53 1.05-2.51 0-1.95-1.58-3.53-3.53-3.53s-3.53 1.58-3.53 3.53c0 .98.4 1.87 1.05 2.51l-7.03 12.84-5.77-4.84c.2-.44.31-.92.31-1.43 0-1.95-1.58-3.53-3.53-3.53s-3.53 1.58-3.53 3.53 1.57 3.52 3.52 3.52zm37.01-5.12c.88 0 1.59.71 1.59 1.59s-.71 1.59-1.59 1.59-1.59-.71-1.59-1.59.71-1.59 1.59-1.59zm-18.5-9.08c.88 0 1.59.71 1.59 1.59s-.72 1.59-1.59 1.59c-.88 0-1.59-.71-1.59-1.59s.71-1.59 1.59-1.59zm-16.53 13.59 6.68 5.6c.18.15.4.23.62.23.06 0 .12-.01.18-.02.29-.05.53-.23.67-.49l7.6-13.88c.25.06.51.09.78.09s.53-.04.78-.09l7.59 13.88c.14.26.39.43.67.49.06.01.12.02.18.02.23 0 .45-.08.62-.23l6.68-5.6c.03.02.05.03.08.05l-3.5 11.71c-8.69-1.84-17.5-1.84-26.19 0l-3.5-11.71c.01-.02.04-.03.06-.05zm-1.98-4.51c.88 0 1.59.71 1.59 1.59s-.71 1.59-1.59 1.59-1.59-.71-1.59-1.59.71-1.59 1.59-1.59z"/><path d="m39.14 5.95c.54 0 .97-.43.97-.97v-4.01c0-.54-.43-.97-.97-.97s-.97.43-.97.97v4.02c0 .53.43.96.97.96z"/><path d="m31.15 8.18c.18.31.51.48.84.48.16 0 .33-.04.48-.13.46-.27.62-.86.36-1.32l-2.01-3.48c-.27-.46-.86-.62-1.32-.36-.46.27-.62.86-.36 1.32z"/><path d="m22.72 11.62 3.48 2.01c.15.09.32.13.48.13.34 0 .66-.17.84-.48.27-.46.11-1.06-.36-1.32l-3.48-2.01c-.46-.27-1.06-.11-1.32.36-.26.44-.11 1.04.36 1.31z"/><path d="m51.29 14.28c.16 0 .33-.04.48-.13l3.48-2.01c.46-.27.62-.86.36-1.32-.27-.46-.86-.62-1.32-.36l-3.48 2.01c-.46.27-.62.86-.36 1.32.18.32.5.49.84.49z"/><path d="m45.72 8.84c.15.09.32.13.48.13.34 0 .66-.17.84-.48l2.01-3.48c.27-.46.11-1.06-.36-1.32-.46-.27-1.06-.11-1.32.36l-2.01 3.48c-.27.45-.11 1.04.36 1.31z"/><path d="m61.11 45.83c-1.07-1.69-3.24-2.34-5.06-1.52l-12.51 5.69c0-.05.01-.09.01-.14 0-1.94-1.58-3.52-3.53-3.52h-8.26c-.42 0-.85-.11-1.23-.3l-6.98-3.67c-.65-.34-1.39-.53-2.13-.53h-5.5v-1.51c0-.54-.43-.97-.97-.97h-10.12c-.51 0-.93.39-.97.9l-1.57 20.72c-.02.27.07.53.26.73.18.2.44.31.71.31h11.71c.54 0 .97-.43.97-.97v-1.58h3.96c.3 0 .61.05.89.16l10.89 3.94c.8.29 1.64.43 2.47.43 1.18 0 2.35-.29 3.4-.85l22.04-11.65c1.31-.7 2.13-2.06 2.13-3.55 0-.75-.21-1.48-.61-2.12zm-47.12 14.25h-9.69l1.43-18.78h8.26zm44.69-10.29-22.04 11.65c-1.32.7-2.88.81-4.3.3l-10.89-3.94c-.5-.18-1.02-.27-1.56-.27h-3.96v-13.75h5.5c.42 0 .85.1 1.22.3l6.99 3.68c.66.34 1.4.52 2.13.52h8.26c.88 0 1.59.71 1.59 1.58 0 .54-.26.91-.46 1.12-.1.1-.22.19-.36.26l-.11.05c-.21.09-.43.15-.65.15h-10.67c-1.78 0-3.22 1.45-3.22 3.22 0 .54.43.97.97.97s.97-.43.97-.97c0-.71.57-1.28 1.28-1.28h10.66c.46 0 .92-.12 1.36-.3.04-.01.07-.01.11-.03l.2-.09 15.15-6.9c.94-.43 2.06-.09 2.61.78.2.33.31.71.31 1.1.01.79-.41 1.49-1.09 1.85z"/></g></svg>