<svg id="Layer_1" enable-background="new 0 0 512.002 512.002" height="512" viewBox="0 0 512.002 512.002" width="512" xmlns="http://www.w3.org/2000/svg"><g><path d="m178.258 210.501c0-10.752-8.748-19.5-19.5-19.5h-20c-10.752 0-19.5 8.748-19.5 19.5v20c0 10.752 8.748 19.5 19.5 19.5h20c10.752 0 19.5-8.748 19.5-19.5zm-15 20c0 2.439-2.061 4.5-4.5 4.5h-20c-2.439 0-4.5-2.061-4.5-4.5v-20c0-2.439 2.061-4.5 4.5-4.5h20c2.439 0 4.5 2.061 4.5 4.5z"/><path d="m249.753 210.501c0-10.752-8.748-19.5-19.5-19.5h-20c-10.752 0-19.5 8.748-19.5 19.5v20c0 10.752 8.748 19.5 19.5 19.5h20c10.752 0 19.5-8.748 19.5-19.5zm-15 20c0 2.439-2.061 4.5-4.5 4.5h-20c-2.439 0-4.5-2.061-4.5-4.5v-20c0-2.439 2.061-4.5 4.5-4.5h20c2.439 0 4.5 2.061 4.5 4.5z"/><path d="m281.749 250.001h20c10.752 0 19.5-8.748 19.5-19.5v-20c0-10.752-8.748-19.5-19.5-19.5h-20c-10.752 0-19.5 8.748-19.5 19.5v20c0 10.752 8.748 19.5 19.5 19.5zm-4.5-39.5c0-2.439 2.061-4.5 4.5-4.5h20c2.439 0 4.5 2.061 4.5 4.5v20c0 2.439-2.061 4.5-4.5 4.5h-20c-2.439 0-4.5-2.061-4.5-4.5z"/><path d="m392.744 210.501c0-10.752-8.748-19.5-19.5-19.5h-20c-10.752 0-19.5 8.748-19.5 19.5v20c0 10.752 8.748 19.5 19.5 19.5h20c10.752 0 19.5-8.748 19.5-19.5zm-15 20c0 2.439-2.061 4.5-4.5 4.5h-20c-2.439 0-4.5-2.061-4.5-4.5v-20c0-2.439 2.061-4.5 4.5-4.5h20c2.439 0 4.5 2.061 4.5 4.5z"/><path d="m178.258 283.001c0-10.752-8.748-19.5-19.5-19.5h-20c-10.752 0-19.5 8.748-19.5 19.5v20c0 10.752 8.748 19.5 19.5 19.5h20c10.752 0 19.5-8.748 19.5-19.5zm-15 20c0 2.439-2.061 4.5-4.5 4.5h-20c-2.439 0-4.5-2.061-4.5-4.5v-20c0-2.439 2.061-4.5 4.5-4.5h20c2.439 0 4.5 2.061 4.5 4.5z"/><path d="m249.753 283.001c0-10.752-8.748-19.5-19.5-19.5h-20c-10.752 0-19.5 8.748-19.5 19.5v20c0 10.752 8.748 19.5 19.5 19.5h20c10.752 0 19.5-8.748 19.5-19.5zm-15 20c0 2.439-2.061 4.5-4.5 4.5h-20c-2.439 0-4.5-2.061-4.5-4.5v-20c0-2.439 2.061-4.5 4.5-4.5h20c2.439 0 4.5 2.061 4.5 4.5z"/><path d="m262.249 303.001c0 10.752 8.748 19.5 19.5 19.5h20c10.752 0 19.5-8.748 19.5-19.5v-20c0-10.752-8.748-19.5-19.5-19.5h-20c-10.752 0-19.5 8.748-19.5 19.5zm15-20c0-2.439 2.061-4.5 4.5-4.5h20c2.439 0 4.5 2.061 4.5 4.5v20c0 2.439-2.061 4.5-4.5 4.5h-20c-2.439 0-4.5-2.061-4.5-4.5z"/><path d="m392.744 283.001c0-10.752-8.748-19.5-19.5-19.5h-20c-10.752 0-19.5 8.748-19.5 19.5v20c0 10.752 8.748 19.5 19.5 19.5h20c10.752 0 19.5-8.748 19.5-19.5zm-15 20c0 2.439-2.061 4.5-4.5 4.5h-20c-2.439 0-4.5-2.061-4.5-4.5v-20c0-2.439 2.061-4.5 4.5-4.5h20c2.439 0 4.5 2.061 4.5 4.5z"/><path d="m178.258 355.501c0-10.752-8.748-19.5-19.5-19.5h-20c-10.752 0-19.5 8.748-19.5 19.5v20c0 10.752 8.748 19.5 19.5 19.5h20c10.752 0 19.5-8.748 19.5-19.5zm-15 20c0 2.439-2.061 4.5-4.5 4.5h-20c-2.439 0-4.5-2.061-4.5-4.5v-20c0-2.439 2.061-4.5 4.5-4.5h20c2.439 0 4.5 2.061 4.5 4.5z"/><path d="m249.753 355.501c0-10.752-8.748-19.5-19.5-19.5h-20c-10.752 0-19.5 8.748-19.5 19.5v20c0 10.752 8.748 19.5 19.5 19.5h20c10.752 0 19.5-8.748 19.5-19.5zm-15 20c0 2.439-2.061 4.5-4.5 4.5h-20c-2.439 0-4.5-2.061-4.5-4.5v-20c0-2.439 2.061-4.5 4.5-4.5h20c2.439 0 4.5 2.061 4.5 4.5z"/><path d="m262.249 375.501c0 10.752 8.748 19.5 19.5 19.5h20c10.752 0 19.5-8.748 19.5-19.5v-20c0-10.752-8.748-19.5-19.5-19.5h-20c-10.752 0-19.5 8.748-19.5 19.5zm15-20c0-2.439 2.061-4.5 4.5-4.5h20c2.439 0 4.5 2.061 4.5 4.5v20c0 2.439-2.061 4.5-4.5 4.5h-20c-2.439 0-4.5-2.061-4.5-4.5z"/><path d="m392.744 355.501c0-10.752-8.748-19.5-19.5-19.5h-20c-10.752 0-19.5 8.748-19.5 19.5v20c0 10.752 8.748 19.5 19.5 19.5h20c10.752 0 19.5-8.748 19.5-19.5zm-15 20c0 2.439-2.061 4.5-4.5 4.5h-20c-2.439 0-4.5-2.061-4.5-4.5v-20c0-2.439 2.061-4.5 4.5-4.5h20c2.439 0 4.5 2.061 4.5 4.5z"/><path d="m158.758 408.501h-20c-10.752 0-19.5 8.748-19.5 19.5v20c0 10.752 8.748 19.5 19.5 19.5h20c10.752 0 19.5-8.748 19.5-19.5v-20c0-10.752-8.748-19.5-19.5-19.5zm4.5 39.5c0 2.439-2.061 4.5-4.5 4.5h-20c-2.439 0-4.5-2.061-4.5-4.5v-20c0-2.439 2.061-4.5 4.5-4.5h20c2.439 0 4.5 2.061 4.5 4.5z"/><path d="m230.253 408.501h-20c-10.752 0-19.5 8.748-19.5 19.5v20c0 10.752 8.748 19.5 19.5 19.5h20c10.752 0 19.5-8.748 19.5-19.5v-20c0-10.752-8.748-19.5-19.5-19.5zm4.5 39.5c0 2.439-2.061 4.5-4.5 4.5h-20c-2.439 0-4.5-2.061-4.5-4.5v-20c0-2.439 2.061-4.5 4.5-4.5h20c2.439 0 4.5 2.061 4.5 4.5z"/><path d="m262.249 448.001c0 10.752 8.748 19.5 19.5 19.5h91.495c10.752 0 19.5-8.748 19.5-19.5v-20c0-10.752-8.748-19.5-19.5-19.5h-91.495c-10.752 0-19.5 8.748-19.5 19.5zm15-20c0-2.439 2.061-4.5 4.5-4.5h91.495c2.439 0 4.5 2.061 4.5 4.5v20c0 2.439-2.061 4.5-4.5 4.5h-91.495c-2.439 0-4.5-2.061-4.5-4.5z"/><path d="m291.749 50.001c4.143 0 7.5-3.357 7.5-7.5s-3.357-7.5-7.5-7.5h-71.496c-4.143 0-7.5 3.357-7.5 7.5s3.357 7.5 7.5 7.5z"/><path d="m392.744 86.211c0-9.304-7.568-16.872-16.871-16.872h-239.744c-9.303 0-16.871 7.568-16.871 16.872v70.257c0 9.303 7.568 16.871 16.871 16.871h102.372c4.143 0 7.5-3.357 7.5-7.5s-3.357-7.5-7.5-7.5h-102.372c-1.031 0-1.871-.839-1.871-1.871v-70.257c0-1.032.84-1.872 1.871-1.872h239.744c1.031 0 1.871.84 1.871 1.872v70.257c0 1.032-.84 1.871-1.871 1.871h-102.372c-4.143 0-7.5 3.357-7.5 7.5s3.357 7.5 7.5 7.5h102.372c9.303 0 16.871-7.568 16.871-16.871z"/><path d="m81.501 40.315v431.371c0 22.23 18.085 40.315 40.315 40.315h268.37c22.229 0 40.314-18.085 40.314-40.315v-198.185c0-4.143-3.357-7.5-7.5-7.5s-7.5 3.357-7.5 7.5v198.186c0 13.959-11.356 25.315-25.314 25.315h-268.37c-13.959 0-25.315-11.356-25.315-25.315v-431.372c0-13.959 11.356-25.315 25.315-25.315h268.37c13.958 0 25.314 11.356 25.314 25.315v198.186c0 4.143 3.357 7.5 7.5 7.5s7.5-3.357 7.5-7.5v-198.186c.001-22.23-18.084-40.315-40.313-40.315h-268.37c-22.231 0-40.316 18.085-40.316 40.315z"/></g></svg>