<svg height="512" viewBox="0 0 48 48" width="512" xmlns="http://www.w3.org/2000/svg"><g id="Rating"><path d="m43 3h-32a5 5 0 0 0 -5 5v7h-1a5 5 0 0 0 -5 5v14a5 5 0 0 0 4.36 5c3 6 2.8 5.89 3.44 6s.42.15 7.57-6h11.63a5 5 0 0 0 5-5c0-2-.39-1.87 7.35 4.76a1 1 0 0 0 .85.22c.64-.13.43 0 3.44-6a5 5 0 0 0 4.36-4.98v-20a5 5 0 0 0 -5-5zm-13 31a3 3 0 0 1 -3 3h-12c-.52 0-.2-.15-6.68 5.41-2.56-5.13-2.49-5.41-3.32-5.41a3 3 0 0 1 -3-3v-14a3 3 0 0 1 3-3h1v11a5 5 0 0 0 5 5h19zm16-6a3 3 0 0 1 -3 3c-.83 0-.73.23-3.32 5.41l-6-5.17c-.44-.35 1.22-.24-22.68-.24a3 3 0 0 1 -3-3v-20a3 3 0 0 1 3-3h32a3 3 0 0 1 3 3z"/><path d="m43.35 15.07-2.35-.35-1.1-2.16a1 1 0 0 0 -1.8 0l-1.1 2.16c-2.64.38-3 .32-3.2 1s.21 1 2 2.7c-.45 2.62-.62 2.92 0 3.36s1 .11 3.19-1c2.35 1.22 2.28 1.22 2.61 1.22a1 1 0 0 0 1-1.17l-.4-2.38 1.72-1.68a1 1 0 0 0 -.57-1.7zm-3.08 4.1c-1.39-.73-1.15-.73-2.54 0 .27-1.57.32-1.34-.79-2.42 1.52-.22 1.35-.06 2.06-1.49.71 1.43.53 1.27 2.06 1.49-1.06 1.07-1.06.85-.79 2.42z"/><path d="m31.35 15.07-2.35-.35-1.1-2.16a1 1 0 0 0 -1.8 0l-1.1 2.16c-2.64.38-3 .32-3.2 1s.21 1 2 2.7c-.45 2.62-.62 2.92 0 3.36s1 .11 3.19-1c2.35 1.22 2.28 1.22 2.61 1.22a1 1 0 0 0 1-1.17l-.4-2.38 1.72-1.68a1 1 0 0 0 -.57-1.7zm-3.08 4.1c-1.39-.73-1.15-.73-2.54 0 .27-1.57.32-1.34-.79-2.42 1.52-.22 1.35-.06 2.06-1.49.71 1.43.53 1.27 2.06 1.49-1.06 1.07-1.06.85-.79 2.42z"/><path d="m19.35 15.07-2.35-.35-1.1-2.16a1 1 0 0 0 -1.8 0l-1.1 2.16c-2.64.38-3 .32-3.2 1s.21 1 2 2.7c-.45 2.62-.62 2.92 0 3.36s1 .11 3.19-1c2.35 1.22 2.28 1.22 2.61 1.22a1 1 0 0 0 1-1.17l-.4-2.38 1.72-1.68a1 1 0 0 0 -.57-1.7zm-3.08 4.1c-1.39-.73-1.15-.73-2.54 0 .27-1.57.32-1.34-.79-2.42 1.52-.22 1.35-.06 2.06-1.49.71 1.43.53 1.27 2.06 1.49-1.06 1.07-1.06.85-.79 2.42z"/></g></svg>