<svg xmlns="http://www.w3.org/2000/svg" viewBox="0 0 512 512">
  <path fill="currentColor" d="M389.66 96.34a24 24 0 0 1 0 33.94l-143.06 143a24 24 0 0 1-16.94 7.06H24a24 24 0 0 1-24-24V248a24 24 0 0 1 4.94-14.66 24 24 0 0 1 33.94 0l143.06 143a24 24 0 0 1 7.06 16.94v44.72a24 24 0 0 1-24 24a24 24 0 0 1-24-24V393.94l-129.06-129a24 24 0 0 1 0-33.94l129.06-129V96a24 24 0 0 1 24-24a24 24 0 0 1 24 24v144.66l143.06-143a24 24 0 0 1 16.94-7.06a24 24 0 0 1 24 24V248a24 24 0 0 1-4.94 14.66a24 24 0 0 1-33.94 0l-143.06-143a24 24 0 0 1-7.06-16.94v-44.72a24 24 0 0 1 24-24a24 24 0 0 1 24 24z"/>
</svg>
