<svg height="511pt" viewBox="-6 0 511 511.99948" width="511pt" xmlns="http://www.w3.org/2000/svg"><path d="m494.269531 265.773438-.058593-.199219c-.808594-3.304688-3.261719-6.015625-6.5625-7.109375-1.046876-.347656-26.074219-8.488282-61.699219-5.988282-32.785157 2.296876-81.242188 14.417969-125.925781 59.09375-26.183594 26.1875-41.171876 53.664063-49.566407 78.527344-8.394531-24.863281-23.386719-52.339844-49.570312-78.527344-44.679688-44.675781-93.136719-56.796874-125.921875-59.09375-35.625-2.5-60.652344 5.640626-61.703125 5.988282-3.296875 1.09375-5.753907 3.804687-6.5625 7.109375l-.054688.199219c-4.960937 17.296874-25.683593 107.585937 53.382813 186.65625 44.679687 44.679687 93.140625 56.796874 125.921875 59.09375 4.726562.332031 9.261719.476562 13.585937.476562 28.257813 0 47.207032-6.164062 48.113282-6.46875 1.023437-.335938 1.964843-.847656 2.808593-1.472656.84375.625 1.785157 1.132812 2.804688 1.472656.910156.304688 19.855469 6.46875 48.117187 6.46875 4.320313 0 8.859375-.144531 13.585938-.476562 32.78125-2.296876 81.238281-14.414063 125.917968-59.09375 79.070313-79.070313 58.34375-169.359376 53.386719-186.65625zm-67.773437 6.714843c15.234375-1.144531 28.375-.082031 37.976562 1.351563l-78.648437 78.648437v-71.96875c13.023437-4.285156 26.589843-6.976562 40.671875-8.03125zm-112.328125 53.226563c15.878906-15.878906 33.140625-28.277344 51.65625-37.148438v83.921875l-103.515625 103.515625c-4.367188-29.648437-5.105469-93.324218 51.859375-150.289062zm-74.199219 112.324218c1.140625 15.230469.078125 28.375-1.351562 37.976563l-103.53125-103.527344v-83.921875c18.515624 8.871094 35.78125 21.269532 51.65625 37.148438 32.136718 32.132812 50.046874 69.925781 53.226562 112.324218zm-165.550781-165.550781c14.078125 1.054688 27.644531 3.746094 40.667969 8.03125v71.96875l-78.648438-78.648437c9.605469-1.433594 22.75-2.496094 37.980469-1.351563zm-52.089844 15.523438 128.988281 128.992187h-93.695312c-.636719 0-1.261719.066406-1.867188.179688-38.195312-50.554688-37.515625-102.101563-33.425781-129.171875zm51.84375 150.273437c-.429687-.425781-.839844-.855468-1.257813-1.28125h98.402344l53.144532 53.144532c-29.648438 4.363281-93.320313 5.105468-150.289063-51.863282zm240.246094 53.226563c-15.238281 1.144531-28.378907.078125-37.980469-1.351563l53.15625-53.15625h98.402344c-.417969.425782-.828125.855469-1.257813 1.28125-32.132812 32.136719-69.925781 50.042969-112.320312 53.226563zm130.738281-74.328125c-.605469-.113282-1.226562-.179688-1.867188-.179688h-93.695312l128.992188-128.992187c4.085937 27.070312 4.769531 78.617187-33.429688 129.171875zm0 0"/><path d="m245.972656 307.605469c1.410156.707031 2.945313 1.0625 4.484375 1.0625 1.535157 0 3.070313-.355469 4.480469-1.0625.890625-.449219 22.058594-11.21875 43.15625-35.503907 19.410156-22.332031 42.546875-60.894531 42.546875-117.765624 0-100.660157-70.703125-144.960938-84.875-152.820313l-.140625-.074219c-2.90625-1.757812-6.554688-1.9375-9.652344-.378906-.890625.445312-22.058594 11.222656-43.160156 35.503906-19.40625 22.335938-42.542969 60.898438-42.542969 117.769532 0 56.871093 23.136719 95.433593 42.542969 117.765624 21.101562 24.28125 42.269531 35.054688 43.160156 35.503907zm37.582032-49.265625c-8.175782 9.519531-16.421876 16.730468-23.097657 21.824218v-64.730468l60.175781-60.175782c-.191406 39.984376-12.65625 74.664063-37.078124 103.082032zm-66.199219-208.011719c13.078125-15.222656 26.332031-24.546875 33.058593-28.75 16.480469 10.285156 59.226563 42.765625 68.453126 107.273437-.316407.25-.625.511719-.914063.800782l-57.496094 57.496094v-39.601563c0-.003906 0-.007813 0-.011719v-49.960937c0-5.523438-4.480469-10-10-10-5.523437 0-10 4.476562-10 10v25.824219l-43.207031-43.207032c5.417969-10.601562 12.117188-20.566406 20.105469-29.863281zm-28.507813 49.746094 51.609375 51.609375v59.601562.011719 68.859375c-21.714843-16.636719-60.1875-55.972656-60.1875-125.820312 0-19.363282 2.878907-37.484376 8.578125-54.261719zm0 0"/><path d="m250.457031 67.578125c2.628907 0 5.210938-1.070313 7.066407-2.929687 1.863281-1.859376 2.933593-4.4375 2.933593-7.070313 0-2.640625-1.070312-5.21875-2.933593-7.078125-1.855469-1.859375-4.4375-2.921875-7.066407-2.921875-2.628906 0-5.210937 1.0625-7.070312 2.921875-1.859375 1.871094-2.929688 4.4375-2.929688 7.078125 0 2.632813 1.066407 5.203125 2.929688 7.070313 1.859375 1.859374 4.441406 2.929687 7.070312 2.929687zm0 0"/></svg>