<?xml version="1.0" encoding="UTF-8" standalone="no"?>
<!-- Created with Inkscape (http://www.inkscape.org/) -->

<svg
   version="1.1"
   id="svg147"
   xml:space="preserve"
   width="682.66669"
   height="682.66669"
   viewBox="0 0 682.66669 682.66669"
   xmlns="http://www.w3.org/2000/svg"
   xmlns:svg="http://www.w3.org/2000/svg"><defs
     id="defs151"><clipPath
       clipPathUnits="userSpaceOnUse"
       id="clipPath161"><path
         d="M 0,512 H 512 V 0 H 0 Z"
         id="path159" /></clipPath></defs><g
     id="g153"
     transform="matrix(1.3333333,0,0,-1.3333333,0,682.66667)"><g
       id="g155"><g
         id="g157"
         clip-path="url(#clipPath161)"><g
           id="g163"
           transform="translate(178.0449,128.3667)"><path
             d="m 0,0 v -18.284 c 0,-12.022 9.745,-21.767 21.767,-21.767 v 0 c 12.022,0 21.767,9.745 21.767,21.767 v 153.167 c 0,12.022 -9.745,21.767 -21.767,21.767 v 0 C 9.745,156.65 0,146.905 0,134.883 V 35.086"
             style="fill:none;stroke:#000000;stroke-width:15;stroke-linecap:round;stroke-linejoin:round;stroke-miterlimit:10;stroke-dasharray:none;stroke-opacity:1"
             id="path165" /></g><g
           id="g167"
           transform="translate(178.0449,263.25)"><path
             d="m 0,0 c 0,0.016 0.001,0.031 0.001,0.046 h -116.274 c -9.184,0 -16.629,-7.444 -16.629,-16.628 v -126.149 c 0,-9.184 7.445,-16.629 16.629,-16.629 l 117.172,0.001"
             style="fill:none;stroke:#000000;stroke-width:15;stroke-linecap:round;stroke-linejoin:round;stroke-miterlimit:10;stroke-dasharray:none;stroke-opacity:1"
             id="path169" /></g><g
           id="g171"
           transform="translate(221.5786,112.6289)"><path
             d="m 0,0 h 35.685 c 5.206,0 10.365,-0.99 15.202,-2.917 l 33.905,-13.507 c 17.929,-6.112 36.741,-9.23 55.683,-9.23 l 42.25,-0.335 c 13.443,0 24.267,11.215 23.628,24.799 -0.44,9.359 -6.489,17.128 -14.727,20.584 -0.375,0.157 -0.623,0.517 -0.623,0.923 0,0.556 0.451,1.005 1.006,1.005 h 5.045 c 12.503,0 23.005,9.973 23.021,22.476 0.017,13.681 -9.681,24.305 -22.655,24.808 v 0.026 l 3.212,0.002 c 12.857,0 23.833,9.996 24.262,22.846 0.418,12.521 -8.901,22.951 -20.965,24.311 v 0.153 h 9.233 c 13.065,0 23.704,10.592 23.704,23.657 0,13.065 -10.64,23.655 -23.704,23.655 l -81.314,0.066 c -8.769,0 -15.149,6.926 -15.147,15.695 v 20.564 c -20.308,0 -40.217,-7.785 -52.782,-23.74 l -12.8,-16.255 C 43.331,149.695 31.436,143.922 18.846,143.922 H 0"
             style="fill:none;stroke:#000000;stroke-width:15;stroke-linecap:round;stroke-linejoin:round;stroke-miterlimit:10;stroke-dasharray:none;stroke-opacity:1"
             id="path173" /></g><g
           id="g175"
           transform="translate(422.8281,275.8945)"><path
             d="m 0,0 v 35.644 c 0,21.343 7.159,42.11 20.5,58.771 0.614,0.768 1.151,1.412 1.592,1.906 13.642,15.261 21.937,35.405 21.937,57.487 0,30.604 -15.931,57.954 -39.953,73.276 -6.441,4.109 -14.884,-0.598 -14.884,-8.238 v -59.091 c 0,-17.376 -14.086,-31.463 -31.462,-31.463 -17.376,0 -31.463,14.087 -31.463,31.463 v 59.091 c 0,7.64 -8.443,12.347 -14.884,8.238 -24.021,-15.321 -39.952,-42.672 -39.952,-73.276 0,-22.082 8.294,-42.226 21.937,-57.487 0.441,-0.494 0.978,-1.138 1.592,-1.906 13.201,-16.485 20.337,-36.993 20.485,-58.1 0.003,0 0.005,0 0.007,0 v -0.313 c 0,-0.119 0.007,-0.238 0.007,-0.358"
             style="fill:none;stroke:#000000;stroke-width:15;stroke-linecap:round;stroke-linejoin:round;stroke-miterlimit:10;stroke-dasharray:none;stroke-opacity:1"
             id="path177" /></g><g
           id="g179"
           transform="translate(338.2876,88.6265)"><path
             d="m 0,0 v -38.856 c 0,-23.345 18.925,-42.27 42.27,-42.27 h 10e-4 c 23.345,0 42.27,18.925 42.27,42.27 V 6.962"
             style="fill:none;stroke:#000000;stroke-width:15;stroke-linecap:round;stroke-linejoin:round;stroke-miterlimit:10;stroke-dasharray:none;stroke-opacity:1"
             id="path181" /></g><g
           id="g183"
           transform="translate(394.686,333.9736)"><path
             d="m 0,0 v 5.34 c 0,7.803 -6.325,14.128 -14.128,14.128 -7.803,0 -14.128,-6.325 -14.128,-14.128 v -63.374"
             style="fill:none;stroke:#000000;stroke-width:15;stroke-linecap:round;stroke-linejoin:round;stroke-miterlimit:10;stroke-dasharray:none;stroke-opacity:1"
             id="path185" /></g><g
           id="g187"
           transform="translate(394.686,275.9175)"><path
             d="M 0,0 V 22.97"
             style="fill:none;stroke:#000000;stroke-width:15;stroke-linecap:round;stroke-linejoin:round;stroke-miterlimit:10;stroke-dasharray:none;stroke-opacity:1"
             id="path189" /></g><g
           id="g191"
           transform="translate(366.4297,86.9399)"><path
             d="M 0,0 V -34.972 C 0,-42.774 6.326,-49.1 14.128,-49.1 c 7.803,0 14.128,6.326 14.128,14.128 v 34.748"
             style="fill:none;stroke:#000000;stroke-width:15;stroke-linecap:round;stroke-linejoin:round;stroke-miterlimit:10;stroke-dasharray:none;stroke-opacity:1"
             id="path193" /></g></g></g></g></svg>
