<?xml version="1.0" encoding="UTF-8"?>
<svg xmlns="http://www.w3.org/2000/svg" viewBox="0 0 38 38" width="512" height="512"><g id="Layer_2" data-name="Layer 2"><path d="M35.92,30A11.85,11.85,0,0,0,37,25,12,12,0,0,0,25,13,12,12,0,0,0,1,13a11.85,11.85,0,0,0,1.08,5L1,23.82A1,1,0,0,0,2,25l.18,0L8,23.92A11.85,11.85,0,0,0,13,25,12,12,0,0,0,25,37a11.85,11.85,0,0,0,5-1.08L35.82,37,36,37a1,1,0,0,0,1-1.18ZM8.62,22a1,1,0,0,0-.44-.1H8l-4.76.87L4.11,18A1,1,0,0,0,4,17.38,9.88,9.88,0,0,1,3,13,10,10,0,1,1,13,23,9.88,9.88,0,0,1,8.62,22Zm25.27,8,.87,4.76L30,33.89a1,1,0,0,0-.62.09A9.88,9.88,0,0,1,25,35,10,10,0,0,1,15,25v-.18A12,12,0,0,0,24.82,15H25A10,10,0,0,1,35,25a9.88,9.88,0,0,1-1,4.38A1,1,0,0,0,33.89,30Z"/><path d="M16.47,17.89l.82.82a1,1,0,0,0,1.42,0,1,1,0,0,0,0-1.42l-.82-.82a6,6,0,1,0-1.42,1.42ZM9,13a4,4,0,1,1,7.43,2l-.72-.73a1,1,0,0,0-1.42,1.42l.73.72A4,4,0,0,1,9,13Z"/><path d="M25.93,19.63a1,1,0,0,0-1.86,0l-4,10a1,1,0,0,0,1.86.74L22.88,28h4.24l.95,2.37A1,1,0,0,0,29,31a1,1,0,0,0,.37-.07,1,1,0,0,0,.56-1.3ZM23.68,26,25,22.69,26.32,26Z"/></g></svg>
