<?xml version="1.0" encoding="UTF-8"?>
<svg xmlns="http://www.w3.org/2000/svg" id="Layer_1" data-name="Layer 1" viewBox="0 0 64 64" width="512" height="512"><path d="M43,40a11,11,0,0,1-22,0,.99974.99974,0,0,0-1-1H10a.99974.99974,0,0,0-1,1,23.17344,23.17344,0,0,0,.43555,4.42676,1,1,0,0,0,.98144.80859H11.8457a1.11641,1.11641,0,0,1,1.04688.83154,19.90979,19.90979,0,0,0,1.30859,3.14942,1.11777,1.11777,0,0,1-.15332,1.33154L13.03223,51.564a.99875.99875,0,0,0-.12207,1.26563,23.00771,23.00771,0,0,0,6.25976,6.26074,1.0001,1.0001,0,0,0,1.26563-.12207l1.0166-1.0166a1.11843,1.11843,0,0,1,1.332-.15234,19.929,19.929,0,0,0,3.14844,1.3081,1.11731,1.11731,0,0,1,.832,1.04737V61.5835a1,1,0,0,0,.80859.98144,22.7388,22.7388,0,0,0,8.85352,0,1,1,0,0,0,.80859-.98144V60.15479a1.11731,1.11731,0,0,1,.832-1.04737,19.929,19.929,0,0,0,3.14844-1.3081,1.1169,1.1169,0,0,1,1.332.15283l1.0166,1.01611a1.00034,1.00034,0,0,0,1.26563.12207,23.00771,23.00771,0,0,0,6.25976-6.26074.99875.99875,0,0,0-.12207-1.26563l-1.01562-1.0166a1.116,1.116,0,0,1-.15235-1.33154,19.97231,19.97231,0,0,0,1.30762-3.14893,1.11641,1.11641,0,0,1,1.04688-.83154H53.583a1,1,0,0,0,.98144-.80859A23.17344,23.17344,0,0,0,55,40a.99974.99974,0,0,0-1-1H44A.99974.99974,0,0,0,43,40Zm9.97461,1a21.1003,21.1003,0,0,1-.23047,2.23535H52.1543a3.12111,3.12111,0,0,0-2.95313,2.22608,17.947,17.947,0,0,1-1.17578,2.832,3.11982,3.11982,0,0,0,.5127,3.66845l.42187.42237A20.98328,20.98328,0,0,1,44.38477,56.96l-.42286-.42236a3.1195,3.1195,0,0,0-3.668-.5127,17.965,17.965,0,0,1-2.832,1.17627,3.12154,3.12154,0,0,0-2.22656,2.95362v.58935a20.66159,20.66159,0,0,1-6.4707,0v-.58935a3.12154,3.12154,0,0,0-2.22656-2.95362,17.965,17.965,0,0,1-2.832-1.17627,3.12144,3.12144,0,0,0-3.668.51221l-.42286.42285A20.98328,20.98328,0,0,1,15.04,52.38428l.42187-.42188a3.12173,3.12173,0,0,0,.51368-3.66845,17.88369,17.88369,0,0,1-1.17676-2.83252,3.12111,3.12111,0,0,0-2.95313-2.22608h-.58984A21.1003,21.1003,0,0,1,11.02539,41h8.0127a13.00046,13.00046,0,0,0,25.92382,0Z"/><rect x="31" y="1" width="2" height="4"/><rect x="52" y="23" width="4" height="2"/><rect x="8" y="23" width="4" height="2"/><rect x="15.44347" y="6.44364" width="1.99979" height="3.99992" transform="translate(-1.15487 14.09877) rotate(-44.99505)"/><rect x="45.55668" y="7.44371" width="3.99992" height="1.99979" transform="translate(7.95849 36.1007) rotate(-45)"/><path d="M33,49V28.81573a3.00011,3.00011,0,1,0-2-.00006V49ZM32,25a1,1,0,1,1-1,1A1.001,1.001,0,0,1,32,25Z"/><path d="M37,35.3335l2.7998-3.7334A1.00071,1.00071,0,0,0,40,31V22.81573a3.00011,3.00011,0,1,0-2-.00006V30.6665l-2.7998,3.7334A1.00071,1.00071,0,0,0,35,35V47h2ZM39,19a1,1,0,1,1-1,1A1.001,1.001,0,0,1,39,19Z"/><path d="M29,47V35a1.00071,1.00071,0,0,0-.2002-.6001L26,30.6665V22.81573a3.00011,3.00011,0,1,0-2-.00006V31a1.00071,1.00071,0,0,0,.2002.6001L27,35.3335V47ZM25,19a1,1,0,1,1-1,1A1.001,1.001,0,0,1,25,19Z"/><path d="M16,26.81567V30a1.00012,1.00012,0,0,0,.293.707L23,37.41406V43h2V37a1.00012,1.00012,0,0,0-.293-.707L18,29.58594V26.81573a3.00011,3.00011,0,1,0-2-.00006ZM17,23a1,1,0,1,1-1,1A1.001,1.001,0,0,1,17,23Z"/><path d="M47,21a2.99253,2.99253,0,0,0-1,5.81567V30.54l-6.65039,5.70068A1.00015,1.00015,0,0,0,39,37v7h2V37.46l6.65039-5.70068A1.00015,1.00015,0,0,0,48,31V26.81573A2.99257,2.99257,0,0,0,47,21Zm0,4a1,1,0,1,1,1-1A1.001,1.001,0,0,1,47,25Z"/><path d="M24.25293,7.33545l-8,9A.99861.99861,0,0,0,16,17v3h2V17.38037L25.44922,9H38.55078L46,17.38037V20h2V17a.99861.99861,0,0,0-.25293-.66455l-8-9A.99974.99974,0,0,0,39,7H25A.99974.99974,0,0,0,24.25293,7.33545Z"/></svg>
