<svg id="Layer_1" enable-background="new 0 0 52 52" height="512" viewBox="0 0 52 52" width="512" xmlns="http://www.w3.org/2000/svg"><g><g><path d="m50 33.4v2.2l-23.9 13.9-24.1-13.9v-2.2l23.9-13.9z" fill="#111d33"/></g><g><g><path d="m50 33.4v2.2l-23.9 13.9v-2.2z" fill="#1d2943"/></g><g><path d="m26.1 47.3v2.2l-24.1-13.9v-2.2z" fill="#111d33"/></g><path d="m50 33.4-23.9 13.9-24.1-13.9 23.9-13.9z" fill="#4c5c75"/></g><g><g><g><path d="m47.6 15.2-.1 18.4-21.5 12.5-21.6-12.5.1-18.4 21.6 12.4z" fill="#dedffb"/></g><g><path d="m47.6 15.2-.1 18.4-21.5 12.5.1-18.4z" fill="#e9e7fc"/></g><g><path d="m26.1 27.7-.1 18.4-21.6-12.5.1-18.4z" fill="#dedffb"/></g><g><path d="m47.6 15.2-21.5 12.5-21.6-12.5 21.5-12.5z" fill="#f3f1fc"/><path d="m42 14c-.8-.4-1.7-1-2.4-1.5-.2.1-.4.1-.5-.1-1.2-1.6-4-1.6-7.2-3.9-3.2-2.2-4.7-4.4-7.6-2.5-1.2.8-2.7 1.3-3.9 2.2-4.7 3.1-7.5 4.2-12.1 6.9.2.1.2.3.1.5l17.9 10.3 18.3-10.6c-.7-.5-1.8-.9-2.6-1.3z" fill="#9ea9c9"/><g><path d="m7.3 15.2 1.4.8 17.4-10.1v-1.7z" fill="#e9e7fc"/><path d="m26.1 4.2v1.7l17.5 10.1 1.4-.8z" fill="#dedffb"/></g></g><g><g><path d="m45.9 22.3c-.1-.2-.2-.5-.3-.7-.1-.3.1-.5.3-.5-.1-.7-.1-1.5-.2-2.2-.2 0-.3-.1-.4-.2l-17.8 10.4v5.1c1.3-.8 15.4-9.6 16.9-10 .5-.2 1.1-.5 1.4-1-.1-.1-.2-.2-.1-.4 0-.1.1-.3.2-.5z" fill="#423d9b"/><g><path d="m46.1 18.3-.7.5-.1 4.6.8.4z" fill="#dedffb"/></g><g fill="#fff"><path d="m43.6 19.8-1.4 5.6c-.7.4-.8.6-1.4 1.1l1.5-5.9z" opacity=".2"/><path d="m38.6 22.7-1.4 5.6c-.7.4-.8.6-1.4 1.1l1.5-5.9z" opacity=".2"/><path d="m33.4 25.7-1.4 5.6c-.7.4-.8.6-1.4 1.1l1.5-5.9z" opacity=".2"/><path d="m45.3 23.4-17.8 10.3v.9l18.6-10.8z"/></g></g></g><g><g><g><path d="m19.5 30.6c.1-.2.2-.5.3-.7.1-.3-.1-.5-.3-.5.1-.7.1-1.5.2-2.2.2 0 .3-.1.4-.2l4.5 2.6v5.1c-1.3-.8-2-1.8-3.5-2.2-.5-.2-1.1-.5-1.4-1 .1-.1.2-.2.1-.4s-.2-.4-.3-.5z" fill="#423d9b"/><g><path d="m19.3 26.6.7.4v4.6l-.7.4z" fill="#e9e7fc"/></g><g fill="#fff"><path d="m21.1 27.6 1.4 5.6c.7.4.8.6 1.4 1.1l-1.5-5.9z" opacity=".2"/><path d="m20 31.6 4.5 2.6v.8l-5.2-3z"/></g></g><g><path d="m12.9 26.7c.1-.2.2-.5.3-.7.1-.3-.1-.5-.3-.5.1-.7.1-1.5.2-2.2.2 0 .3-.1.4-.2l4.5 2.6v5.1c-1.3-.8-2-1.8-3.5-2.2-.5-.2-1.1-.5-1.4-1 .1-.1.2-.2.1-.4-.1-.1-.2-.3-.3-.5z" fill="#423d9b"/><g><path d="m12.8 22.7.7.5v4.6l-.7.4z" fill="#e9e7fc"/></g><g fill="#fff"><path d="m14.6 23.8 1.4 5.6c.7.4.8.6 1.4 1.1l-1.5-5.9z" opacity=".2"/><path d="m13.5 27.8 4.4 2.6v.8l-5.1-3z"/></g></g><g><path d="m6.4 22.9c.1-.2.2-.5.3-.7.1-.3-.1-.5-.3-.5.1-.7.1-1.5.2-2.2.2 0 .3-.1.4-.2l4.5 2.6v5.1c-1.3-.8-2-1.8-3.5-2.2-.5-.2-1.1-.5-1.4-1 .1-.1.2-.2.1-.4-.2-.2-.2-.3-.3-.5z" fill="#423d9b"/><g><path d="m6.2 18.9.7.4v4.7l-.7.4z" fill="#e9e7fc"/></g><g fill="#fff"><path d="m8 20 1.4 5.6c.7.4.8.6 1.4 1.1l-1.5-5.9z" opacity=".2"/><path d="m6.9 24 4.5 2.6v.8l-5.2-3z"/></g></g></g><g><g><path d="m19.5 37.9c.1-.2.2-.5.3-.7.1-.3-.1-.5-.3-.5.1-.7.1-1.5.2-2.2.2 0 .3-.1.4-.2l4.5 2.6v5.1c-1.3-.8-2-1.8-3.5-2.2-.5-.2-1.1-.5-1.4-1 .1-.1.2-.2.1-.4s-.2-.4-.3-.5z" fill="#423d9b"/><g><path d="m19.3 33.9.7.4v4.6l-.7.4z" fill="#e9e7fc"/></g><g fill="#fff"><path d="m21.1 34.9 1.4 5.6c.7.4.8.6 1.4 1.1l-1.5-5.9z" opacity=".2"/><path d="m20 38.9 4.5 2.6v.8l-5.2-3z"/></g></g><g><path d="m12.9 34.1c.1-.2.2-.5.3-.7.1-.3-.1-.5-.3-.5.1-.7.1-1.5.2-2.2.2 0 .3-.1.4-.2l4.5 2.6v5.1c-1.3-.8-2-1.8-3.5-2.2-.5-.2-1.1-.5-1.4-1 .1-.1.2-.2.1-.4s-.2-.4-.3-.5z" fill="#423d9b"/><g><path d="m12.8 30.1.7.4v4.6l-.7.4z" fill="#e9e7fc"/></g><g fill="#fff"><path d="m14.6 31.1 1.4 5.6c.7.4.8.6 1.4 1.1l-1.5-5.9z" opacity=".2"/><path d="m13.5 35.1 4.4 2.6v.8l-5.1-3z"/></g></g><g><path d="m6.4 30.2c.1-.2.2-.5.3-.7.1-.3-.1-.5-.3-.5.1-.7.1-1.5.2-2.2.2 0 .3-.1.4-.2l4.5 2.6v5.1c-1.3-.8-2-1.8-3.5-2.2-.5-.2-1.1-.5-1.4-1 .1-.1.2-.2.1-.4-.2-.1-.2-.3-.3-.5z" fill="#423d9b"/><g><path d="m6.2 26.2.7.5v4.6l-.7.4z" fill="#e9e7fc"/></g><g fill="#fff"><path d="m8 27.3 1.4 5.6c.7.4.8.6 1.4 1.1l-1.5-5.9z" opacity=".2"/><path d="m6.9 31.3 4.5 2.6v.8l-5.2-3z"/></g></g></g></g><g><g><path d="m40.2 30.4v7.5l-5.6 3.2v-7.5z" fill="#bf7d5a"/></g><g><ellipse cx="39.1" cy="35.5" fill="#fff" rx=".6" ry=".3" transform="matrix(.502 -.865 .865 .502 -11.232 51.493)"/></g></g></g></g><g><g><g><g><g enable-background="new"><g><path d="m19.3 10.8-.7.4-.7-.4.7-.4z" fill="#4b9adb"/></g></g></g><g><g enable-background="new"><g><path d="m22.8 15.9v6.4l-.7.3-.7-.3.1-2.1-2.2-1.3v1.3l-.7.4-.7-.4v-9.4l.7.4.7-.4v6.5l2.2 1.3v-2.7l.6.4z" fill="#1d2943"/></g><g><path d="m19.3 10.8v9.4l-.7.4v-9.4z" fill="#4c5c75"/></g><g><path d="m18.6 11.2v9.4l-.7-.4v-9.4z" fill="#1d2943"/></g><g><g enable-background="new"><g><path d="m22 19.7-3.4-2v.8l3.4 2z" fill="#1d2943"/></g><g><path d="m22 19-2.7-1.7-.7.4 3.4 2z" fill="#4c5c75"/></g></g></g><g><path d="m22.8 15.9v6.4l-.7.4v-6.4z" fill="#4c5c75"/></g><g><path d="m22.1 16.3v6.4l-.7-.4.1-6.4z" fill="#1d2943"/></g><g><path d="m22.8 15.9-.7.4-.6-.4.6-.4z" fill="#4b9adb"/></g></g></g></g><g><g><g enable-background="new"><g><path d="m32.9 7.9v4.4l.7-.4v-4z" fill="#4c5c75"/></g><g><path d="m32.3 7.9v4l.6.4v-4.4z" fill="#1d2943"/></g></g></g><g><g enable-background="new"><g><path d="m36.4 11.4-3.5-2v.8l3.5 2z" fill="#1d2943"/></g><g><path d="m34.9 10.4v-.6c-.3 0-.6-.1-.6-.4l-.7-.4-.7.4 3.4 2v-.8l-.3-.2z" fill="#4c5c75"/></g></g></g><g><g enable-background="new"><g><path d="m37.2 10.4v3.5l-.7.4-.7-.4v-3.5z" fill="#1d2943"/></g></g></g><g><g enable-background="new"><g><path d="m36.5 10.4v3.9l.7-.4v-3.5z" fill="#4c5c75"/></g><g><path d="m35.8 10.4v3.5l.7.4v-3.9z" fill="#1d2943"/></g></g></g></g></g><g><g><g><path d="m38.3 12.1-.8.8c-.1.1.6-.3-14.1 8.2-.3.1-.6 0-.8-.3l-5.8-8.5c-.2-.3-.2-.6 0-.7.1-.1.9-.8.8-.7.1-.1-.2.1 14.1-8.2.3-.1.6 0 .8.3l5.8 8.5c.2.1.2.4 0 .6z" fill="#dedffb"/></g></g></g><g><g><path d="m38.3 12.1c-1.2 1.2 1.4-.5-14.9 8.9-.3.2-.6 0-.8-.3l-5.8-8.5c-.2-.3-.2-.6 0-.7l.8-.7c-.2.2-.2.5 0 .7l5.8 8.5c.2.3.6.4.8.3 15-8.7 14.1-8.2 14.1-8.2z" fill="#dedffb"/></g><g><path d="m31.7 2.6c.3-.1.6 0 .8.3l5.8 8.5c.2.3.2.7-.1.8l-14.1 8.1c-.3.2-.6 0-.8-.3l-5.8-8.5c-.2-.3-.2-.7.1-.8z" fill="#f3f1fc"/><path d="m23.9 19.9c-.1 0-.2 0-.2-.1-5.8-8.5-5.9-8.5-5.9-8.6l14.1-8.2c.1 0 .2 0 .2.1 5.8 8.5 5.9 8.5 5.9 8.6z" fill="#fff"/></g><g><g><path d="m31.6 3.7c.3-.1.6 0 .8.3l.7 1.2-2.2 1.3-1.1-1.7z" fill="#5094ff"/></g><g><path d="m33.5 5.6 1.1 1.7-2.3 1.3-1.1-1.7z" fill="#5094ff"/></g><g><path d="m36.2 9.8.8 1.2c.2.3.1.7-.1.8l-1.8 1-1.1-1.7z" fill="#5094ff"/></g><g><path d="m34.9 7.7 1 1.7-2.2 1.3-1.1-1.7z" fill="#5094ff"/></g><g><path d="m32.2 9.3 1.1 1.6-2.5 1.5-1.1-1.7z" fill="#5094ff"/></g><g><path d="m33.6 11.4 1.1 1.7-2.5 1.4-1.1-1.7z" fill="#5094ff"/></g><g><path d="m30.7 13.1 1.1 1.6-2.5 1.5-1.1-1.7z" fill="#5094ff"/></g><g><path d="m29.3 10.9 1.1 1.7-2.5 1.4-1.1-1.6z" fill="#5094ff"/></g><g enable-background="new"><g><path d="m26.4 12.6 1.1 1.7-2.5 1.4-1.1-1.6z" fill="#5094ff"/></g><g><path d="m27.8 14.7 1.1 1.7-2.5 1.5-1.1-1.7z" fill="#5094ff"/></g></g><g><path d="m29.5 5 1.1 1.7-2.5 1.4-1.1-1.7z" fill="#5094ff"/></g><g><path d="m30.9 7.2 1 1.6-2.5 1.5-1-1.7z" fill="#5094ff"/></g><g><path d="m28 8.8 1 1.7-2.5 1.4-1-1.6z" fill="#5094ff"/></g><g><path d="m25.1 10.5 1 1.6-2.5 1.5-1-1.7z" fill="#5094ff"/></g><g><path d="m22.2 12.2 1 1.6-2.2 1.3-1.1-1.6z" fill="#5094ff"/></g><g><path d="m26.6 6.7 1.1 1.7-2.5 1.4-1.1-1.7z" fill="#5094ff"/></g><g><path d="m23.7 8.3 1.1 1.7-2.5 1.5-1.1-1.7z" fill="#5094ff"/></g><g><path d="m20.8 10 1.1 1.7-2.3 1.3-.7-1.2c-.2-.3-.1-.7.1-.8z" fill="#5094ff"/></g><g><path d="m24.9 16.4 1.1 1.7-1.8 1c-.3.1-.6 0-.8-.3l-.7-1.1z" fill="#5094ff"/></g><g><path d="m23.5 14.3 1.1 1.6-2.2 1.3-1.1-1.6z" fill="#5094ff"/></g></g></g></g></g></svg>