<svg id="Artboard_30" enable-background="new 0 0 64 64" height="512" viewBox="0 0 64 64" width="512" xmlns="http://www.w3.org/2000/svg"><g><path d="m35.779 25c-1.125-1.725-1.779-3.786-1.779-6 0-6.075 4.925-11 11-11s11 4.925 11 11-4.925 11-11 11z" fill="#ffb127"/><g fill="#ffb127"><path d="m58 18h4v2h-4z"/><path d="m28 18h4v2h-4z"/><path d="m44 2h2v4h-2z"/><path d="m53.607 7.393h4v2h-4z" transform="matrix(.707 -.707 .707 .707 10.352 41.778)"/><path d="m54.607 27.606h2v4h-2z" transform="matrix(.707 -.707 .707 .707 -4.648 47.991)"/><path d="m33.393 6.393h2v4h-2z" transform="matrix(.707 -.707 .707 .707 4.139 26.778)"/></g><path d="m53.706 25.706c1.433-1.858 2.294-4.179 2.294-6.706 0-6.075-4.925-11-11-11-2.527 0-4.848.861-6.706 2.294-1.433 1.857-2.294 4.178-2.294 6.706 0 6.075 4.925 11 11 11 2.527 0 4.848-.861 6.706-2.294z" fill="#ffc152"/><g><path d="m31 58h-12c-1.105 0-2 .895-2 2v2h16v-2c0-1.105-.895-2-2-2z" fill="#5a5b5d"/><path d="m23 59v-9l4-1v1 9z" fill="#bdbdbe"/><path d="m48 45h-46l3.678-18.392c.187-.935 1.008-1.608 1.962-1.608h34.72c.953 0 1.774.673 1.961 1.608z" fill="#00a4f0"/><path d="m2 45h46v4h-46z" fill="#5a5b5d"/><path d="m23 54h2c1.105 0 2-.895 2-2v-3h-4z" fill="#9c9d9e"/><path d="m33 60c0-1.105-.895-2-2-2h-12c-.045 0-.088.01-.132.013-.064.195-.107.4-.107.617v1c0 .552.448 1 1 1h13.239z" fill="#696a6c"/><path d="m4 46.127c0 .938.761 1.699 1.699 1.699h42.301v-2.826h-44z" fill="#696a6c"/><path d="m44.971 29.855-.649-3.247c-.187-.935-1.008-1.608-1.962-1.608h-.601l-38.446 13.437-1.313 6.563h19.177z" fill="#66c2ed"/><path d="m35.239 40 .75 5h2.022l-.75-5h9.739l-.4-2h-9.639l-.75-5h9.389l-.4-2h-9.289l-.9-6h-2.022l.9 6h-7.889v-6h-2v6h-7.889l.9-6h-2.022l-.9 6h-9.289l-.4 2h9.389l-.75 5h-9.639l-.4 2h9.739l-.75 5h2.022l.75-5h9.239v5h2v-5zm-9.239-7h8.189l.75 5h-8.939zm-2 5h-8.939l.75-5h8.189z" fill="#696a6c"/><path d="m24 40v3.203l2-1.273v-1.93h3.032l3.143-2h-6.175v-5h8.189l.509 3.394 1.846-1.175-.333-2.219h3.819l3.142-2h-7.261l-.564-3.759-1.921.671.463 3.088h-7.889v-.492l-7.131 2.492h5.131v5h-8.939l.581-3.872-2.134.746-.469 3.126h-8.476l-1.25.437-.133.664-.18.899h9.739l-.75 5h2.022l.75-5z" fill="#77787c"/><path d="m30.686 25h-23.046c-.953 0-1.774.673-1.961 1.608l-1.203 6.012c8.123-2.372 19.38-5.652 26.21-7.62z" fill="#66c2ed"/><g fill="#77787c"><path d="m26 26.354v-1.354h-2v1.934c.682-.198 1.35-.391 2-.58z"/><path d="m4.533 32.333-.057.287c1.731-.505 3.609-1.053 5.552-1.62h-5.228z"/><path d="m16.389 29.147.622-4.147h-2.022l-.714 4.762c.704-.205 1.409-.41 2.114-.615z"/></g></g><g><path d="m13.028 11c-2.609 0-4.752 1.999-4.98 4.549l.005.005c-.594-.35-1.285-.554-2.025-.554-2.209 0-4 1.791-4 4h16v-3c0-2.762-2.238-5-5-5z" fill="#c2c3c5"/><path d="m13.028 11c-2.609 0-4.752 1.999-4.98 4.549l.005.005c-.594-.35-1.285-.554-2.025-.554-.547 0-1.068.111-1.543.31 2.169 1.455 6.189 2.657 13.543 2.764v-2.074c0-2.762-2.238-5-5-5z" fill="#d5d6d8"/><path d="m13.942 11.938c.204-.29.933-.163 1.397.133.525.336.932 1.033.732 1.33-.202.3-1.018.186-1.53-.2-.441-.332-.802-.974-.599-1.263z" fill="#fff" opacity=".8"/></g><g fill="#fff"><path d="m38.411 26.484c.667-1.081 2.777-1.058 4.006-.103.984.765 1.611 2.29 1.068 3.163-.688 1.108-3.181 1.054-4.416-.226-.684-.707-1.176-1.993-.658-2.834z"/><path d="m36.778 29.259c.261-.423 1.088-.415 1.569-.04.386.3.631.897.418 1.239-.269.434-1.246.413-1.73-.089-.267-.277-.46-.78-.257-1.11z"/></g></g></svg>